<?xml version="1.0" encoding="utf-8"?>
<!-- Generator: Adobe Illustrator 22.0.1, SVG Export Plug-In . SVG Version: 6.00 Build 0)  -->
<svg version="1.1" id="Layer_1" xmlns="http://www.w3.org/2000/svg" xmlns:xlink="http://www.w3.org/1999/xlink" x="0px" y="0px"
	 viewBox="0 0 792 612" style="enable-background:new 0 0 792 612;" xml:space="preserve">
<path d="M844.4,405.4c-0.4,18.3-2,35.6,1.8,53c2.2,10.1,2.7,20.5,0.9,30.8c-0.7,3.9-3,7-5.5,9.8c-2.2,2.5-4.6,4.9-7.4,6.7
	c-2.1,1.4-2.3,2.9-2.1,5c2.8,25.4,5.8,50.7,12.7,75.4c2.5,8.9,3,18.4,2.6,28c-0.8,17.9-1.7,35.8,1.2,53.8
	c2.5,15.1,1.7,30.6,0.9,45.9c-0.8,15.5-1.7,30.9-2.6,46.4c-0.3,5.5-1.5,10.5-5.2,15.2c-4.7,6-8.2,12.9-12.4,19.2
	c-2.2,3.4-3.8,7.5-8.1,9c-1.1,0.4-1.1,1.5-1.4,2.4c-2.4,8.1-7,15.3-9.9,23.4c-0.7-5.1-1.4-10.1-2-15.2c-0.6-5.3-2.1-6.7-6.6-4.3
	c-4.1,2.2-3.8-0.4-4.4-2.7c-0.1-0.6-0.1-1.3-0.2-2c-0.9-5.7-1-5.7-5.7-2.6c-0.3-0.2-0.7-0.3-0.7-0.6c-2.8-10.5-2.9-11.4-13.6-9.9
	c-18.5,2.7-37.1,3.1-55.6,5.2c-7.2,0.8-14.5,1.1-21.9,0.8c-5.4-0.2-10.9,0.9-16.3,1.9c-12,2.2-23.9,0-35.8-0.3
	c-38-0.7-76-0.4-113.9-0.7c-64.2-0.5-128.3-0.8-192.5-1.4c-46.7-0.4-93.3-1-140-1.8c-43-0.8-86-1.9-128.9-3
	c-11.8-0.3-23.6-1.2-35.4-1.9c-4.4-0.2-7.1-3.5-10-6c-2.5-2-5.1-3.5-8.5-5.5c1.4,10.9-6.2,17.5-9.9,25.7c-0.9,2.1-2.4,1.9-4.1,1.8
	c-7.6-0.3-14.5-3-21.7-5c-6.5-1.9-11.4-4.9-15-11c-4-6.8-4.5-6.5-11.1-2.5c-7.8,4.7-15.4,9.8-24.1,13.8c-2.7-18-5.5-35.8-0.8-53.6
	c0.4-1.4,0.4-3,1.7-4.1c8.3-7.2,8.5-17.4,10.2-27.2c0.9-5.2,0-10.2-0.1-15.3c-0.4-13.3,3.1-25.9,6.3-38.6
	c4.9-19.4,8.1-39.2,14.4-58.3c0.5-1.5,0.5-3.3,0.4-4.9c-0.4-8,0.8-15.8,2-23.7c0.6-4.1-3-6.9-5.3-8.9c-7.1-6.2-9-13.9-9.3-22.7
	c-0.7-21-3.7-41.7-5.5-62.6c-0.2-2.4-1-2.7-3-2.2c-5.4,1.4-11.1,2.1-16.3,4.1c-8.5,3.3-17.7,3.6-26.8,8.1c10-26,18.7-51.7,31.5-75.7
	c0.9-1.8,1.9-3.4,3.9-4.3c13.8-6.7,24.4-17.7,35.9-27.5c2.9-2.5,2-6.2,2.7-9.3c3.3-14.7,7-29.5,15.2-42.3
	c10.1-15.8,25.9-23.9,43.8-28c57.3-13.1,114.2-27.5,171.6-40.3c46.2-10.4,92.3-21.3,138.7-31.2c43.8-9.3,86.9-21.2,130.6-30.6
	c55.9-12,111.6-24.7,167.4-37c21.3-4.7,42.7-9.3,64.1-14c4.7-1,9.2-2.6,13.8-4c13.7-4.3,27.9-4.1,41.9-4.8
	c15.1-0.8,27.3,5.5,35.7,18.7c15.7,24.6,24.4,51.3,26.5,80.3c0.2,2.3,1,4.1,2.1,6c4.8,7.9,10.2,15.5,13.2,24.4
	c0.9,2.7,3.5,4.8,5.2,7.2c8.9,13.1,19.1,25.6,22.1,41.9c2.9,16.3,5.2,32.8,7.5,49.2c2.3,16.9,2.2,34.2,6.3,50.9
	c0.2,0.9,1.1,2.1-0.2,2.5c-1.9,0.6-3.7,0.4-5.7-0.7C863.6,418.5,854.6,411.8,844.4,405.4z"/>
</svg>
