<?xml version="1.0" encoding="utf-8"?>
<!-- Generator: Adobe Illustrator 22.0.1, SVG Export Plug-In . SVG Version: 6.00 Build 0)  -->
<svg version="1.1" id="Layer_1" xmlns="http://www.w3.org/2000/svg" xmlns:xlink="http://www.w3.org/1999/xlink" x="0px" y="0px"
	 viewBox="0 0 792 612" style="enable-background:new 0 0 792 612;" xml:space="preserve">
<path d="M779.2,772.2c-16.8,1.2-33.5,2.6-50.3,3.6c-9.4,0.5-19.4,2.5-28.2,0.1c-22-5.9-44-1.8-66-2.9c-5.9-0.3-11.9,2.2-17.9,3.5
	c-7.7,1.6-15.5,4-23-0.9c-5.9-3.8-12.3-3.3-18.8-2.2c-6,1-12.1,2-18.1,3c-0.5,0.1-1,0-1.4-0.2c-10.7-4.9-22.2-3.5-33.4-3.6
	c-6.8-0.1-13.7,0.1-20.5-0.1c-7.4-0.1-14.5-0.1-21.2,4.1c-2.9,1.8-6.2,1.7-9.6-1.1c-2.5-2.1-6.7-2.8-10.2-2.9
	c-9.6-0.4-19.3-0.1-29-0.1c-20-0.1-40-1-59.9-0.1c-22.6,1.1-45.1-1.7-67.7-0.2c-4.3,0.3-8.7,1.6-12.5,3.6c-5,2.6-10.5,2.6-14.7,0.6
	c-13.1-6-26.7-4-40.3-4.4c-2.7-0.1-5.3,0.2-8-0.1c-3.9-0.3-7,0.7-10.4,3.1c-5.7,4.1-12.2,3.2-19.2,2.7c-10.2-0.7-18.8-8-29.4-5.9
	c-2.7,0.5-5.7,0.3-8.5,0c-15.4-1.5-30.2,3.1-45.3,4.5c-7.3,0.7-15,0.3-22.3-1c-24.6-4.7-49.4-2.8-74.2-3.7c-8.4-0.3-17.2-0.9-25-3.6
	c-14.1-5-19.6-16.9-19.4-31.2c0.2-12.8,1.4-25.6,2.3-38.4c1.1-16.4,2.4-32.9,3.6-49.3c1.4-19.2,2.8-38.5,4.3-57.7
	c1.2-16.6,2.5-33.2,3.7-49.8c1.6-20.6,3.2-41.1,4.7-61.7c1.1-15.3,2.2-30.5,3.3-45.8c1.4-19.4,2.9-38.8,4.4-58.2
	C3,355.4,4.5,334.6,6,313.9c1.5-20.7,3.1-41.5,4.7-62.2c1.5-19.9,2.9-39.8,4.3-59.8c1.5-19.6,3-39.2,4.5-58.8
	c1.5-20.6,3-41.2,4.5-61.8c1.6-20.4,3.3-40.8,4.9-61.2c1.1-14.9,2-29.9,3.1-44.8c1.8-24.2,3.7-48.5,5.8-72.7c0.5-6.4,1-13,2.9-19.1
	c3-9.4,10.7-14,20.1-14.5c12.9-0.7,25.9-0.3,38.9-0.4c38.5-0.2,76.9-0.4,115.4-0.4c38.8,0,77.6,0.5,116.4,0.6
	c55.2,0.1,110.3-0.1,165.5,0c65.6,0,131.3,0.1,196.9,0.3c17.5,0,35,0.2,52.5,0.3c15.3,0.1,23.7,11.3,24.7,24.7
	c2.4,32.5,5.2,65,7.7,97.6c2.2,29.4,4.2,58.8,6.4,88.2c2.1,28.2,4.6,56.4,6.7,84.6c1.8,24.1,3.4,48.1,5.2,72.2
	c1.8,24.7,3.8,49.5,5.7,74.2c1.8,23.9,3.5,47.8,5.3,71.7c1.5,19.6,3.2,39.1,4.7,58.7c1.5,20.7,2.8,41.5,4.3,62.3
	c1.4,18.8,3,37.5,4.4,56.2c1.9,25.1,3.7,50.1,5.6,75.2c1.5,20.2,3.3,40.5,4.7,60.7c1.2,17.4,2.8,34.9,3.1,52.3
	c0.4,19.8-11.5,32.1-31.1,33.8c-8.1,0.7-16.3,1-24.4,1.5C779.3,773,779.2,772.6,779.2,772.2z"/>
</svg>
